<?xml version="1.0" standalone="no"?>
<!DOCTYPE svg PUBLIC "-//W3C//DTD SVG 20010904//EN"
 "http://www.w3.org/TR/2001/REC-SVG-20010904/DTD/svg10.dtd">
<svg version="1.0" xmlns="http://www.w3.org/2000/svg"
 width="1920.000000pt" height="1080.000000pt" viewBox="0 0 1920.000000 1080.000000"
 preserveAspectRatio="xMidYMid meet">

<g transform="translate(0.000000,1080.000000) scale(0.100000,-0.100000)"
fill="#000000" stroke="none">
<path d="M1196 10224 c-308 -61 -567 -263 -701 -547 -72 -152 -88 -225 -89
-407 0 -127 4 -171 22 -244 26 -103 82 -229 146 -324 87 -131 257 -273 409
-342 243 -110 561 -110 804 0 209 95 411 296 499 498 14 34 30 62 34 62 14 0
42 -39 59 -86 15 -39 24 -50 45 -52 20 -3 26 1 26 16 0 42 -34 113 -71 151
l-40 40 13 80 c15 96 22 99 96 43 94 -70 141 -147 165 -264 11 -53 16 -64 35
-66 30 -5 35 15 23 85 -25 132 -123 266 -242 328 l-56 29 -6 90 c-3 50 -4 92
-2 94 11 11 146 -46 211 -90 158 -106 261 -277 282 -469 7 -61 8 -64 36 -67
l29 -4 -6 70 c-14 165 -81 307 -207 433 -93 93 -172 141 -295 178 l-70 22 -25
77 c-13 42 -26 83 -28 90 -9 33 171 -6 296 -63 133 -62 277 -184 361 -308 77
-113 132 -269 148 -422 8 -67 9 -70 36 -73 24 -3 27 0 27 27 0 16 -5 64 -11
106 -35 257 -185 500 -394 642 -143 97 -272 144 -457 168 -43 6 -50 10 -76 53
-17 26 -44 66 -62 90 l-32 42 100 0 c429 0 827 -257 1014 -656 45 -96 85 -242
93 -342 11 -124 13 -132 40 -132 24 0 25 3 25 64 0 144 -52 334 -134 493 -110
212 -293 393 -512 505 -172 89 -343 128 -555 128 -87 0 -140 4 -144 11 -14 22
-154 118 -225 154 -98 49 -167 73 -265 91 -98 17 -277 17 -369 -2z"/>
<path d="M14800 4240 c-7 -13 -21 -20 -42 -20 -17 0 -40 -7 -50 -17 -16 -14
-16 -18 -4 -32 18 -20 21 -41 11 -64 -10 -24 35 -70 60 -61 14 6 16 3 10 -14
-4 -16 -2 -22 9 -22 8 0 18 5 21 10 4 7 12 7 24 0 22 -11 51 15 51 47 0 11 7
26 15 33 9 7 13 15 11 18 -3 3 4 17 14 33 20 28 20 28 0 34 -11 3 -20 10 -20
15 0 12 -70 60 -87 60 -7 0 -17 -9 -23 -20z"/>
<path d="M17631 2736 c-18 -22 4 -58 32 -54 31 4 32 62 1 66 -11 2 -26 -4 -33
-12z"/>
<path d="M17732 2581 c-8 -4 -12 -19 -10 -32 2 -18 9 -24 28 -24 19 0 26 6 28
24 3 20 -11 41 -28 41 -3 0 -11 -4 -18 -9z"/>
<path d="M17490 2476 c-27 -33 18 -72 48 -42 13 13 14 20 6 34 -15 23 -38 26
-54 8z"/>
<path d="M18040 2359 c-36 -65 -68 -119 -72 -119 -4 0 -10 5 -13 10 -10 16
-43 12 -54 -7 -11 -21 3 -53 24 -53 8 0 15 -2 15 -6 0 -3 -133 -245 -297 -539
-269 -485 -298 -533 -315 -524 -38 20 -68 -39 -31 -59 14 -8 8 -25 -51 -133
-37 -68 -76 -130 -87 -138 -10 -7 -19 -23 -19 -35 0 -11 -24 -64 -54 -116
l-53 -95 1070 -3 c589 -1 1072 0 1074 2 3 3 -1052 1911 -1066 1928 -3 4 -35
-47 -71 -113z"/>
<path d="M17812 2408 c-16 -16 -15 -23 4 -42 19 -20 29 -20 48 0 12 12 13 20
6 35 -12 21 -40 25 -58 7z"/>
<path d="M17575 2324 c-18 -19 -16 -33 8 -48 18 -11 47 0 54 21 4 12 -23 43
-37 43 -5 0 -16 -7 -25 -16z"/>
<path d="M17337 2214 c-27 -27 20 -77 49 -53 23 19 13 53 -16 57 -14 2 -29 0
-33 -4z"/>
<path d="M17653 2164 c-8 -22 10 -49 32 -49 10 0 22 7 28 16 15 24 1 49 -28
49 -15 0 -28 -7 -32 -16z"/>
<path d="M17432 2058 c-21 -21 -8 -68 19 -68 10 0 39 30 39 40 0 10 -29 40
-39 40 -4 0 -12 -5 -19 -12z"/>
<path d="M17741 2012 c-12 -23 4 -52 29 -52 25 0 41 30 29 53 -13 22 -46 22
-58 -1z"/>
<path d="M17170 1905 c-18 -22 -1 -50 31 -50 20 0 24 5 24 30 0 23 -5 31 -21
33 -11 2 -27 -4 -34 -13z"/>
<path d="M17518 1899 c-37 -21 -4 -78 33 -59 21 12 25 40 7 58 -14 14 -18 14
-40 1z"/>
<path d="M17260 1745 c-18 -22 -8 -50 19 -50 32 0 49 28 32 49 -17 20 -35 20
-51 1z"/>
<path d="M17600 1735 c-19 -23 -8 -50 22 -53 19 -2 28 2 33 18 12 39 -29 66
-55 35z"/>
<path d="M17007 1614 c-15 -16 -7 -53 14 -59 30 -10 58 19 43 43 -12 18 -45
28 -57 16z"/>
<path d="M17341 1582 c-20 -38 31 -71 58 -38 9 11 10 20 1 35 -13 26 -46 27
-59 3z"/>
<path d="M17100 1445 c-20 -25 -8 -50 25 -50 21 0 31 5 33 18 4 21 -14 47 -33
47 -7 0 -18 -7 -25 -15z"/>
<path d="M17430 1419 c-9 -15 -8 -24 1 -35 18 -22 53 -13 57 15 6 40 -39 56
-58 20z"/>
<path d="M16846 1314 c-22 -21 -20 -41 5 -54 24 -14 49 2 49 31 0 28 -35 43
-54 23z"/>
<path d="M17191 1272 c-12 -23 4 -52 29 -52 25 0 41 30 29 53 -13 22 -46 22
-58 -1z"/>
<path d="M16941 1132 c-12 -23 4 -52 29 -52 25 0 41 30 29 53 -13 22 -46 22
-58 -1z"/>
<path d="M16690 1035 c-18 -22 -8 -50 19 -50 32 0 49 28 32 49 -17 20 -35 20
-51 1z"/>
<path d="M17044 956 c-11 -28 1 -51 25 -51 32 0 49 28 32 49 -17 20 -50 21
-57 2z"/>
<path d="M16751 906 c-9 -11 -10 -20 -1 -35 13 -26 46 -27 59 -3 20 38 -31 71
-58 38z"/>
<path d="M16825 786 c-20 -15 -17 -44 7 -59 12 -8 21 -7 32 2 36 30 -1 85 -39
57z"/>
<path d="M16545 759 c-10 -30 18 -58 43 -43 9 6 17 22 17 35 0 34 -50 41 -60
8z"/>
</g>
</svg>
