<?xml version="1.0" encoding="utf-8"?>
<!-- Generator: Adobe Illustrator 26.4.1, SVG Export Plug-In . SVG Version: 6.00 Build 0)  -->
<svg version="1.0" id="katman_1" xmlns="http://www.w3.org/2000/svg" xmlns:xlink="http://www.w3.org/1999/xlink" x="0px" y="0px"
	 viewBox="0 0 550 362" style="enable-background:new 0 0 550 362;" xml:space="preserve">
<style type="text/css">
	.st0{fill:#DB1819;}
	.st1{fill:#FFFFFF;}
	.st2{fill:#2D3187;}
</style>
<path class="st0" d="M120.52,185.01c-14.33,0-25.95-11.62-25.95-25.95v-43.2c0-14.33,11.62-25.95,25.95-25.95h308.1
	c14.33,0,25.95,11.62,25.95,25.95v43.2c0,14.33-11.62,25.95-25.95,25.95H120.52z"/>
<polyline class="st0" points="121.63,159.06 121.63,115.86 428.62,115.86 428.62,159.06 "/>
<path class="st1" d="M126.73,152.02c0,0,1.9-5.74,12.56-9.26c10.66-3.53,17.66-4.9,21.23-10.57c2.63-4.66-3.8-9.84-3.8-9.84
	s-0.32,3.96-10.6,8.59c-11.95,3.89-15.77,4.44-21.3,8.53c-4.26,3.17-2.16,8.04-1.73,8.61C125.16,151.44,126.73,152.02,126.73,152.02
	"/>
<path class="st2" d="M138.7,131.99c0,0,8.53-1.4,13.16-4.73c4.65-3.32,4.86-4.9,4.86-4.9s-3.01-1.06-10.02,3.1
	C141.21,128.72,138.7,131.99,138.7,131.99"/>
<path class="st2" d="M144.63,142.36c0,0-8.52,1.4-13.17,4.73c-4.64,3.33-4.85,4.9-4.85,4.9s3.02,1.07,10.02-3.09
	C142.12,145.64,144.63,142.36,144.63,142.36"/>
<path class="st2" d="M120.52,134.25c0,0,2.25,1.78,9.46-3.37c2.96-2.13,4.54-4.12,4.54-4.12s-2.36-0.06-7.85,2.29
	C121.53,131.77,120.52,134.25,120.52,134.25"/>
<path class="st2" d="M162.38,140.4c0,0-2.91-1.52-9.46,3.38c-2.99,2.23-4.55,4.11-4.55,4.11s2.37,0.06,7.85-2.3
	C161.31,142.67,162.38,140.4,162.38,140.4"/>
<path class="st1" d="M147.44,116.76c0,0-10.03-3.61-19.3,3.71c-6.58,4.81-7.62,13.79-7.62,13.79s2.11-5.38,16.8-9.86
	C146.89,120.48,147.44,116.76,147.44,116.76"/>
<path class="st1" d="M135.57,157.7c0,0,10.04,3.63,19.3-3.69c6.59-4.81,7.63-13.8,7.63-13.8s-2.11,5.38-16.81,9.87
	C136.12,153.99,135.57,157.7,135.57,157.7"/>
<path class="st1" d="M188.89,117.41c2.86,0,4.97,0.62,6.35,1.87c1.38,1.24,2.08,2.86,2.08,4.86c0,1.71-0.47,3.01-1.41,3.9
	c-0.94,0.9-2.29,1.35-4.05,1.35c-0.54,0-0.9-0.06-1.04-0.16c-0.16-0.11-0.23-0.32-0.23-0.66c0-0.31-0.02-0.7-0.06-1.19
	s-0.16-0.95-0.34-1.41c-0.18-0.44-0.47-0.83-0.87-1.15c-0.39-0.32-0.93-0.48-1.63-0.48c-0.97,0-1.85,0.3-2.6,0.89
	c-0.76,0.59-1.14,1.36-1.14,2.31c0,0.81,0.31,1.48,0.93,2c0.63,0.52,1.41,0.99,2.35,1.43c0.94,0.44,1.97,0.89,3.07,1.35
	c1.1,0.45,2.13,1.05,3.07,1.8c0.94,0.74,1.73,1.66,2.34,2.77c0.63,1.12,0.94,2.52,0.94,4.22c0,1.34-0.23,2.59-0.66,3.76
	c-0.44,1.17-1.09,2.18-1.97,3.04c-0.86,0.87-1.95,1.55-3.27,2.03c-1.33,0.49-2.86,0.73-4.63,0.73c-1.51,0-2.92-0.17-4.21-0.5
	c-1.29-0.33-2.41-0.75-3.37-1.26c-0.96-0.5-1.71-1.04-2.25-1.64c-0.55-0.59-0.82-1.13-0.82-1.61c0-2,0.12-3.45,0.34-4.33
	c0.23-0.88,0.64-1.32,1.25-1.32c0.42,0,0.87,0.19,1.34,0.55c0.47,0.37,1.01,0.77,1.62,1.23c0.61,0.45,1.31,0.86,2.12,1.22
	c0.81,0.37,1.74,0.55,2.8,0.55c0.43,0,0.84-0.03,1.26-0.12c0.41-0.08,0.76-0.2,1.09-0.39c0.32-0.18,0.57-0.42,0.77-0.73
	c0.21-0.29,0.3-0.66,0.3-1.09c0-0.76-0.29-1.37-0.87-1.82c-0.57-0.45-1.3-0.87-2.18-1.25c-0.88-0.39-1.83-0.78-2.84-1.18
	c-1.02-0.41-1.96-0.97-2.84-1.69c-0.89-0.7-1.62-1.62-2.19-2.75c-0.57-1.12-0.86-2.56-0.86-4.32c0-1.97,0.37-3.64,1.11-5.01
	c0.76-1.37,1.71-2.47,2.87-3.34c1.17-0.87,2.49-1.48,3.96-1.86C185.97,117.6,187.44,117.41,188.89,117.41"/>
<path class="st1" d="M214.48,124.69c2.86,0,5,0.88,6.44,2.64c1.44,1.76,2.17,4.54,2.17,8.33c0,2.37-0.27,4.48-0.83,6.33
	c-0.54,1.85-1.3,3.42-2.28,4.71c-0.97,1.29-2.11,2.28-3.41,2.93c-1.3,0.66-2.72,1-4.23,1c-1.61,0-2.87-0.35-3.78-1.04
	c-0.92-0.7-1.62-1.69-2.14-2.96c-0.09,1.1-0.17,1.93-0.23,2.5c-0.06,0.58-0.1,1.05-0.13,1.39c-0.03,0.35-0.06,0.66-0.07,0.94
	c-0.02,0.27-0.05,0.63-0.09,1.09c-0.05,0.45-0.1,1.08-0.17,1.86c-0.06,0.8-0.15,1.89-0.27,3.28c-0.03,0.36-0.1,0.61-0.23,0.73
	c-0.11,0.13-0.38,0.18-0.77,0.18h-1.63c-0.94,0-1.71-0.1-2.3-0.3c-0.59-0.2-1.06-0.48-1.42-0.84c-0.35-0.36-0.59-0.81-0.72-1.33
	c-0.14-0.53-0.21-1.15-0.21-1.85c0-0.3,0.04-1.12,0.14-2.46c0.09-1.34,0.2-2.94,0.34-4.81c0.14-1.87,0.29-3.87,0.45-6.03
	c0.16-2.16,0.33-4.21,0.49-6.17c0.15-1.96,0.28-3.69,0.38-5.21c0.11-1.52,0.19-2.57,0.25-3.15c0.03-0.67,0.1-1.06,0.23-1.18
	c0.09-0.08,0.33-0.14,0.73-0.14h1.77c1.64,0,2.83,0.35,3.57,1.03c0.75,0.68,1.11,1.49,1.11,2.43c0.71-1.4,1.61-2.4,2.72-3.01
	C211.47,125,212.84,124.69,214.48,124.69 M211.15,130.75c-1.55,0-2.67,0.67-3.42,2c-0.72,1.33-1.09,3.16-1.09,5.47
	c0,0.78,0.05,1.56,0.16,2.31c0.11,0.76,0.29,1.45,0.57,2.05c0.27,0.61,0.64,1.09,1.11,1.46c0.48,0.36,1.07,0.55,1.8,0.55
	c1.3,0,2.4-0.64,3.28-1.91c0.88-1.28,1.32-3.28,1.32-6.01c0-0.76-0.05-1.49-0.16-2.21c-0.1-0.71-0.3-1.34-0.57-1.89
	c-0.27-0.55-0.65-0.99-1.14-1.33C212.54,130.91,211.91,130.75,211.15,130.75"/>
<path class="st1" d="M229.46,150.18c-0.94,0-1.71-0.1-2.31-0.3c-0.59-0.2-1.06-0.48-1.4-0.85c-0.35-0.36-0.6-0.81-0.73-1.33
	c-0.14-0.54-0.21-1.15-0.21-1.85c0-0.46,0.02-1.1,0.07-1.93c0.04-0.83,0.12-1.99,0.25-3.46c0.12-1.47,0.26-3.34,0.43-5.6
	c0.17-2.26,0.37-5.06,0.62-8.4c0.03-0.67,0.11-1.06,0.23-1.19c0.08-0.08,0.34-0.13,0.73-0.13h1.78c0.94,0,1.71,0.1,2.3,0.28
	c0.59,0.18,1.06,0.45,1.4,0.82c0.35,0.37,0.6,0.81,0.74,1.33c0.13,0.51,0.2,1.08,0.2,1.72c0,0.46-0.03,1.14-0.09,2.05
	c-0.06,0.91-0.14,2.15-0.25,3.72c-0.1,1.56-0.25,3.5-0.43,5.82c-0.19,2.32-0.4,5.12-0.69,8.39c-0.02,0.37-0.1,0.61-0.22,0.73
	c-0.13,0.12-0.38,0.18-0.78,0.18H229.46z M226.22,119.77c0-1.2,0.44-2.16,1.32-2.88c0.88-0.68,2.07-1.04,3.56-1.04
	c1.3,0,2.26,0.27,2.84,0.79c0.59,0.54,0.89,1.24,0.89,2.12c0,1.12-0.42,2.05-1.25,2.8c-0.84,0.75-2.06,1.11-3.67,1.11
	C227.45,122.68,226.22,121.72,226.22,119.77"/>
<path class="st1" d="M247.21,144.58c0.88,0,1.64-0.12,2.29-0.36c0.66-0.24,1.22-0.51,1.71-0.82c0.49-0.3,0.89-0.58,1.23-0.82
	c0.33-0.24,0.63-0.36,0.91-0.36c0.7,0,1.05,0.46,1.05,1.37c0,0.21-0.04,0.51-0.14,0.89c-0.1,0.38-0.21,0.77-0.36,1.19
	c-0.16,0.4-0.32,0.79-0.49,1.15c-0.16,0.37-0.32,0.64-0.47,0.82c-0.16,0.16-0.42,0.39-0.8,0.73c-0.38,0.33-0.89,0.67-1.52,1
	c-0.64,0.33-1.38,0.63-2.23,0.89c-0.85,0.26-1.8,0.39-2.83,0.39c-1.16,0-2.34-0.18-3.58-0.52c-1.23-0.35-2.35-0.95-3.34-1.82
	c-1.01-0.87-1.83-2.04-2.48-3.51c-0.65-1.47-0.98-3.32-0.98-5.53c0-0.79,0.05-1.69,0.16-2.72c0.1-1.02,0.32-2.06,0.66-3.14
	c0.33-1.08,0.77-2.14,1.34-3.19c0.57-1.05,1.31-1.98,2.25-2.8c0.94-0.81,2.07-1.47,3.39-1.98c1.33-0.5,2.89-0.75,4.72-0.75
	c1.49,0,2.77,0.18,3.84,0.53c1.08,0.35,1.97,0.82,2.68,1.41c0.69,0.59,1.21,1.28,1.56,2.08c0.35,0.78,0.52,1.63,0.52,2.54
	c0,1.65-0.51,2.86-1.54,3.63c-1.04,0.77-2.49,1.16-4.37,1.16c-0.45,0-0.77-0.04-0.93-0.11c-0.17-0.08-0.26-0.26-0.26-0.53
	c0-0.72-0.01-1.38-0.05-1.95c-0.03-0.58-0.11-1.06-0.25-1.46c-0.14-0.39-0.34-0.7-0.62-0.91c-0.27-0.22-0.67-0.32-1.19-0.32
	c-0.94,0-1.69,0.3-2.26,0.91c-0.56,0.6-0.98,1.34-1.27,2.2c-0.29,0.87-0.47,1.75-0.55,2.66c-0.07,0.91-0.11,1.68-0.11,2.28
	c0,2.15,0.35,3.66,1.03,4.51C244.63,144.16,245.72,144.58,247.21,144.58"/>
<path class="st1" d="M267.56,150.64c-1.34,0-2.67-0.17-3.99-0.5c-1.32-0.33-2.5-0.91-3.55-1.73c-1.04-0.82-1.9-1.92-2.57-3.28
	c-0.67-1.36-1.01-3.08-1.01-5.15c0-0.76,0.06-1.66,0.19-2.73c0.12-1.06,0.35-2.15,0.7-3.27c0.35-1.13,0.83-2.24,1.46-3.36
	c0.62-1.11,1.43-2.09,2.44-2.98c1-0.88,2.21-1.59,3.64-2.13c1.43-0.55,3.12-0.83,5.1-0.83c1.57,0,2.91,0.18,4,0.55
	c1.1,0.36,1.97,0.85,2.64,1.48c0.67,0.62,1.16,1.34,1.46,2.16c0.31,0.82,0.45,1.69,0.45,2.64c0,1.4-0.27,2.58-0.84,3.55
	c-0.56,0.98-1.29,1.79-2.18,2.44c-0.9,0.65-1.89,1.16-2.98,1.53c-1.1,0.36-2.17,0.64-3.23,0.84c-1.07,0.2-2.05,0.31-2.94,0.36
	c-0.9,0.05-1.59,0.07-2.07,0.07c0,0.58,0.08,1.15,0.24,1.71c0.16,0.56,0.42,1.05,0.76,1.48c0.32,0.42,0.77,0.77,1.32,1.06
	c0.55,0.27,1.21,0.4,2.01,0.4c0.78,0,1.4-0.13,1.84-0.39c0.44-0.26,0.8-0.55,1.07-0.86c0.28-0.32,0.51-0.61,0.7-0.88
	c0.2-0.25,0.47-0.38,0.8-0.38c0.14,0,0.41,0.03,0.79,0.12c0.39,0.07,0.77,0.24,1.17,0.47c0.39,0.24,0.74,0.58,1.04,1
	c0.3,0.43,0.46,0.97,0.46,1.65c0,0.88-0.28,1.64-0.82,2.27c-0.55,0.64-1.25,1.15-2.11,1.54c-0.88,0.4-1.83,0.69-2.9,0.87
	C269.59,150.56,268.56,150.64,267.56,150.64 M268.42,130.75c-0.67,0-1.23,0.19-1.71,0.57c-0.46,0.38-0.87,0.85-1.19,1.43
	c-0.32,0.57-0.56,1.21-0.72,1.92c-0.16,0.7-0.29,1.36-0.39,2c1.88-0.03,3.4-0.35,4.57-0.96c1.18-0.61,1.76-1.48,1.76-2.59
	c0-0.61-0.18-1.15-0.57-1.64C269.79,130.99,269.21,130.75,268.42,130.75"/>
<path class="st1" d="M299.35,141.99c-0.09,1.39-0.2,2.73-0.32,3.98c-0.13,1.26-0.2,2.36-0.27,3.3c-0.03,0.37-0.12,0.61-0.23,0.73
	c-0.13,0.11-0.39,0.18-0.78,0.18h-1.65c-0.95,0-1.7-0.1-2.29-0.3c-0.59-0.2-1.07-0.48-1.42-0.84c-0.34-0.36-0.59-0.81-0.72-1.34
	c-0.14-0.54-0.2-1.15-0.2-1.85c0-0.46,0.02-1.11,0.07-1.93c0.04-0.83,0.13-1.99,0.24-3.46c0.13-1.47,0.28-3.33,0.44-5.6
	c0.16-2.26,0.37-5.06,0.62-8.4c0.01-0.67,0.1-1.06,0.23-1.19c0.08-0.08,0.33-0.13,0.72-0.13h1.78c0.91,0,1.64,0.11,2.22,0.32
	c0.58,0.21,1.04,0.49,1.42,0.81c0.36,0.34,0.62,0.73,0.76,1.19c0.16,0.45,0.25,0.92,0.28,1.41c0.88-1.64,1.89-2.74,3-3.33
	c1.13-0.57,2.45-0.87,3.96-0.87c0.83,0,1.62,0.08,2.37,0.23c0.75,0.15,1.43,0.4,2.05,0.78c0.6,0.36,1.12,0.83,1.55,1.43
	c0.43,0.59,0.72,1.35,0.91,2.26c0.94-1.76,1.96-2.98,3.09-3.67c1.13-0.68,2.53-1.03,4.24-1.03c0.93,0,1.83,0.1,2.71,0.3
	c0.85,0.2,1.62,0.54,2.24,1.03c0.65,0.48,1.16,1.15,1.53,1.98c0.39,0.84,0.58,1.87,0.58,3.12c0,0.94-0.05,2.1-0.15,3.46
	c-0.08,1.37-0.2,2.85-0.3,4.45c-0.13,1.59-0.26,3.23-0.42,4.91c-0.16,1.68-0.27,3.3-0.36,4.85c-0.03,0.34-0.06,0.59-0.1,0.77
	c-0.03,0.18-0.09,0.32-0.16,0.41c-0.07,0.09-0.2,0.15-0.33,0.18c-0.16,0.03-0.38,0.05-0.64,0.05h-1.46c-0.97,0-1.76-0.09-2.36-0.28
	c-0.61-0.18-1.08-0.44-1.41-0.78c-0.35-0.33-0.58-0.74-0.71-1.25c-0.13-0.49-0.19-1.07-0.19-1.7c0-0.4,0.02-0.96,0.06-1.69
	c0.04-0.72,0.1-1.51,0.17-2.36c0.09-0.85,0.16-1.73,0.23-2.65c0.09-0.91,0.16-1.75,0.24-2.52c0.07-0.78,0.13-1.45,0.17-2.03
	c0.04-0.57,0.07-0.95,0.07-1.14c0-0.78-0.16-1.48-0.48-2.08c-0.31-0.61-0.92-0.92-1.83-0.92c-0.8,0-1.48,0.26-2.05,0.77
	c-0.58,0.52-1.07,1.23-1.46,2.15c-0.39,0.91-0.71,1.98-0.96,3.23c-0.24,1.24-0.4,2.59-0.5,4.05c-0.06,0.94-0.13,2.02-0.22,3.23
	c-0.1,1.22-0.2,2.73-0.32,4.55c-0.04,0.34-0.07,0.59-0.1,0.77c-0.03,0.18-0.07,0.32-0.16,0.41c-0.07,0.09-0.18,0.15-0.33,0.18
	c-0.16,0.03-0.36,0.05-0.64,0.05h-1.46c-0.96,0-1.76-0.09-2.35-0.28c-0.61-0.18-1.07-0.44-1.42-0.78c-0.33-0.33-0.56-0.74-0.69-1.25
	c-0.15-0.49-0.22-1.07-0.22-1.7c0-0.61,0.06-1.5,0.16-2.66c0.1-1.17,0.21-2.38,0.32-3.64c0.1-1.26,0.22-2.46,0.32-3.6
	c0.1-1.14,0.16-1.97,0.16-2.48c0-0.78-0.16-1.48-0.48-2.08c-0.32-0.61-0.94-0.92-1.85-0.92c-0.82,0-1.52,0.31-2.09,0.92
	c-0.58,0.6-1.06,1.41-1.45,2.44c-0.37,1.01-0.67,2.2-0.89,3.56C299.6,139.07,299.44,140.5,299.35,141.99"/>
<path class="st1" d="M340.91,150.64c-2.08,0-3.83-0.29-5.21-0.89c-1.39-0.59-2.49-1.4-3.3-2.44c-0.82-1.03-1.4-2.24-1.73-3.62
	c-0.33-1.38-0.51-2.87-0.51-4.44c0-1.83,0.22-3.61,0.67-5.36c0.43-1.74,1.18-3.3,2.25-4.66c1.07-1.37,2.47-2.46,4.21-3.3
	c1.74-0.83,3.93-1.25,6.53-1.25c3.81,0,6.56,0.94,8.22,2.8c1.66,1.87,2.47,4.48,2.47,7.85c0,0.93-0.07,1.98-0.2,3.11
	c-0.15,1.15-0.39,2.27-0.78,3.4c-0.38,1.12-0.9,2.21-1.55,3.28c-0.65,1.06-1.47,2-2.48,2.83c-1.01,0.82-2.21,1.47-3.61,1.95
	C344.48,150.4,342.82,150.64,340.91,150.64 M343.05,130.75c-1.16,0-2.08,0.3-2.76,0.88c-0.68,0.6-1.2,1.31-1.54,2.14
	c-0.36,0.83-0.58,1.71-0.68,2.64c-0.11,0.93-0.16,1.71-0.16,2.35c0,1.99,0.31,3.48,0.95,4.41c0.64,0.94,1.56,1.41,2.73,1.41
	c1.06,0,1.94-0.33,2.62-1c0.68-0.67,1.21-1.47,1.6-2.42c0.37-0.94,0.63-1.92,0.78-2.94c0.13-1.05,0.2-1.91,0.2-2.61
	c0-1.51-0.29-2.7-0.84-3.56C345.38,131.17,344.41,130.75,343.05,130.75"/>
<path class="st1" d="M371.63,146.18c0-0.67,0.04-1.54,0.16-2.62c0.1-1.08,0.2-2.21,0.32-3.41c0.1-1.2,0.2-2.36,0.31-3.48
	c0.1-1.12,0.17-2.07,0.17-2.82c0-0.79-0.2-1.5-0.56-2.11c-0.39-0.62-1.13-0.94-2.21-0.94c-1.07,0-1.95,0.26-2.63,0.77
	c-0.71,0.52-1.3,1.46-1.75,2.83c-0.48,1.36-0.87,3.25-1.17,5.65c-0.32,2.4-0.59,5.47-0.87,9.23c-0.04,0.37-0.1,0.61-0.23,0.73
	c-0.12,0.12-0.38,0.18-0.77,0.18h-1.63c-0.94,0-1.71-0.1-2.3-0.29c-0.59-0.2-1.07-0.48-1.41-0.84c-0.35-0.36-0.59-0.81-0.72-1.34
	c-0.15-0.54-0.22-1.15-0.22-1.85c0-0.46,0.03-1.11,0.07-1.93c0.06-0.83,0.13-1.99,0.25-3.46c0.13-1.47,0.26-3.34,0.43-5.6
	c0.17-2.26,0.38-5.06,0.61-8.4c0.03-0.67,0.1-1.06,0.23-1.19c0.09-0.08,0.32-0.13,0.72-0.13h1.78c0.91,0,1.66,0.11,2.27,0.32
	c0.59,0.21,1.07,0.49,1.41,0.83c0.38,0.35,0.63,0.76,0.77,1.23c0.16,0.47,0.26,0.95,0.29,1.43c0.94-1.61,2.02-2.72,3.23-3.34
	c1.22-0.63,2.73-0.94,4.55-0.94c1.29,0,2.39,0.13,3.33,0.41c0.94,0.27,1.72,0.74,2.34,1.39c0.62,0.66,1.08,1.51,1.39,2.55
	c0.3,1.05,0.44,2.35,0.44,3.89c0,0.48-0.01,1.19-0.07,2.09c-0.07,0.91-0.15,1.9-0.23,2.98c-0.1,1.09-0.19,2.21-0.29,3.38
	c-0.12,1.17-0.22,2.26-0.29,3.25c-0.09,1-0.18,1.89-0.23,2.65c-0.06,0.75-0.09,1.26-0.09,1.5c0,0.67-0.09,1.07-0.23,1.21
	c-0.16,0.13-0.49,0.2-1,0.2h-1.46c-0.97,0-1.76-0.1-2.37-0.28c-0.6-0.18-1.08-0.44-1.41-0.78c-0.32-0.33-0.58-0.75-0.71-1.25
	C371.7,147.38,371.63,146.81,371.63,146.18"/>
<path class="st1" d="M392.98,150.64c-1.33,0-2.66-0.17-3.99-0.5c-1.31-0.33-2.5-0.91-3.55-1.73c-1.04-0.82-1.91-1.92-2.57-3.28
	c-0.67-1.36-1-3.08-1-5.15c0-0.76,0.06-1.66,0.19-2.73c0.11-1.06,0.35-2.15,0.69-3.27c0.35-1.13,0.84-2.24,1.46-3.36
	c0.62-1.11,1.43-2.09,2.43-2.98c1.01-0.88,2.21-1.59,3.64-2.13c1.43-0.55,3.12-0.83,5.1-0.83c1.58,0,2.91,0.18,4,0.55
	c1.1,0.36,1.98,0.85,2.66,1.48c0.65,0.62,1.14,1.34,1.45,2.16c0.3,0.82,0.46,1.69,0.46,2.64c0,1.4-0.29,2.58-0.84,3.55
	c-0.58,0.98-1.29,1.79-2.2,2.44c-0.89,0.65-1.88,1.16-2.99,1.53c-1.08,0.36-2.16,0.64-3.22,0.84c-1.07,0.2-2.04,0.31-2.93,0.36
	c-0.91,0.05-1.59,0.07-2.08,0.07c0,0.58,0.09,1.15,0.25,1.71c0.16,0.56,0.42,1.05,0.76,1.48c0.32,0.42,0.77,0.77,1.3,1.06
	c0.55,0.27,1.22,0.4,2.01,0.4c0.8,0,1.4-0.13,1.85-0.39c0.43-0.26,0.79-0.55,1.08-0.86c0.27-0.32,0.51-0.61,0.71-0.88
	c0.2-0.25,0.46-0.38,0.79-0.38c0.16,0,0.42,0.03,0.8,0.12c0.37,0.07,0.76,0.24,1.15,0.47c0.39,0.24,0.75,0.58,1.04,1
	c0.31,0.43,0.47,0.97,0.47,1.65c0,0.88-0.29,1.64-0.83,2.27c-0.55,0.64-1.25,1.15-2.11,1.54c-0.86,0.4-1.83,0.69-2.9,0.87
	C395,150.56,393.98,150.64,392.98,150.64 M393.84,130.75c-0.66,0-1.24,0.19-1.7,0.57c-0.48,0.38-0.87,0.85-1.18,1.43
	c-0.32,0.57-0.58,1.21-0.74,1.92c-0.16,0.7-0.29,1.36-0.39,2c1.88-0.03,3.41-0.35,4.58-0.96c1.17-0.61,1.76-1.48,1.76-2.59
	c0-0.61-0.19-1.15-0.58-1.64C395.22,130.99,394.64,130.75,393.84,130.75"/>
<path class="st1" d="M413.55,129.34c0,0.7-0.04,1.53-0.13,2.48c-0.1,0.95-0.19,1.91-0.29,2.87c-0.1,0.96-0.2,1.85-0.29,2.68
	c-0.09,0.84-0.15,1.48-0.15,1.94c0,1.17,0.28,2.01,0.86,2.57c0.55,0.56,1.24,0.85,2.06,0.85c1.43,0,2.57-0.74,3.41-2.23
	c0.85-1.48,1.39-3.46,1.59-5.92l0.73-8.51c0.03-0.33,0.14-0.57,0.34-0.71c0.19-0.13,0.42-0.2,0.67-0.2h1.63
	c0.65,0,1.24,0.05,1.8,0.16c0.57,0.1,1.06,0.3,1.49,0.59c0.42,0.29,0.75,0.68,1,1.17c0.24,0.48,0.36,1.1,0.36,1.86
	c0,0.31-0.03,0.88-0.07,1.71c-0.04,0.84-0.12,2.04-0.23,3.6c-0.1,1.57-0.26,3.53-0.43,5.92c-0.19,2.38-0.41,5.29-0.64,8.72
	c-0.16,2-0.61,3.66-1.33,4.99c-0.77,1.32-1.69,2.37-2.82,3.14c-1.11,0.77-2.38,1.31-3.77,1.61c-1.4,0.31-2.83,0.46-4.28,0.46
	c-1.54,0-2.96-0.14-4.26-0.41c-1.28-0.28-2.39-0.66-3.33-1.14c-0.96-0.49-1.69-1.06-2.23-1.69c-0.52-0.64-0.79-1.33-0.79-2.04
	c0-0.58,0.13-1.09,0.39-1.51c0.26-0.42,0.59-0.78,1.02-1.04c0.42-0.28,0.93-0.48,1.49-0.61c0.56-0.14,1.14-0.22,1.75-0.22
	c0.3,0,0.53,0.16,0.65,0.45c0.13,0.31,0.35,0.65,0.65,1.03c0.29,0.38,0.75,0.72,1.39,1.02c0.63,0.3,1.59,0.45,2.86,0.45
	c1.12,0,2.02-0.26,2.73-0.81c0.69-0.55,1.24-1.25,1.62-2.09c0.37-0.85,0.62-1.77,0.75-2.78c0.11-1.01,0.17-1.95,0.17-2.87
	c-0.47,0.85-1.01,1.54-1.6,2.07c-0.61,0.53-1.2,0.94-1.85,1.22c-0.65,0.3-1.27,0.49-1.92,0.58c-0.64,0.09-1.24,0.13-1.82,0.13
	c-1.12,0-2.15-0.15-3.08-0.46c-0.92-0.3-1.72-0.79-2.38-1.48c-0.67-0.68-1.19-1.57-1.55-2.66c-0.37-1.09-0.55-2.41-0.55-3.96
	c0-0.57,0.03-1.34,0.09-2.3c0.06-0.96,0.13-2.03,0.22-3.23c0.1-1.2,0.2-2.5,0.3-3.89c0.12-1.41,0.22-2.84,0.35-4.28
	c0.06-0.94,0.49-1.42,1.27-1.42h1.46c0.98,0,1.76,0.1,2.37,0.28c0.59,0.18,1.08,0.44,1.43,0.79c0.35,0.35,0.58,0.79,0.71,1.32
	C413.51,128.07,413.55,128.67,413.55,129.34"/>
<path class="st0" d="M147.64,230.25h-6.21v41.63h-12.77v-23.71h-8.33c-2.31,0-4.18,0.61-5.61,1.83c-1.44,1.22-2.15,2.87-2.15,4.94
	c0,2.12,0.62,3.8,1.87,5.05c1.25,1.25,3.12,1.87,5.61,1.87h1.2v9.95H118c-5.32,0-9.7-1.41-13.16-4.23
	c-3.46-2.82-5.19-7.13-5.19-12.91c0-3.9,0.89-7.15,2.68-9.74c1.79-2.59,4.2-4.5,7.23-5.75c3.03-1.25,6.43-1.87,10.2-1.87h8.89v-7.06
	H95.35v-10.58h52.29V230.25z"/>
<path class="st0" d="M170.72,219.66v10.59h-6.14v41.63h-12.7v-41.63h-6.21v-10.59h6.7c-1.69-2.59-3.07-4.46-4.13-5.61
	c-1.06-1.15-2.18-1.93-3.35-2.33c-1.18-0.4-2.8-0.6-4.87-0.6h-3.88V200.9h3.74c4.05,0.05,7.26,0.49,9.63,1.34
	c2.38,0.85,4.67,2.56,6.88,5.15c2.21,2.59,4.85,6.68,7.9,12.28H170.72z"/>
<polygon class="st2" points="199.43,261.37 214.89,261.37 212.98,271.88 183.63,271.88 192.45,222.14 206.28,222.14 "/>
<path class="st2" d="M239.16,232.3l-6.99,39.59h-13.9l7.06-39.59H239.16z M227.84,227c-1.25-1.08-1.87-2.47-1.87-4.16
	c0-1.5,0.41-2.9,1.24-4.2c0.82-1.29,1.95-2.33,3.39-3.1c1.43-0.78,3.04-1.16,4.83-1.16c2.16,0,3.87,0.55,5.12,1.66
	c1.25,1.11,1.87,2.53,1.87,4.27c0,1.51-0.41,2.89-1.24,4.16c-0.82,1.27-1.96,2.28-3.42,3.03c-1.46,0.75-3.06,1.13-4.8,1.13
	C230.79,228.63,229.08,228.09,227.84,227"/>
<path class="st2" d="M267.53,227.99c-1.55,0-2.73,0.34-3.53,1.02c-0.8,0.68-1.39,1.78-1.77,3.28h6.21l-2.05,11.5h-6.21l-4.94,28.09
	h-13.9l4.94-28.09h-4.3l2.04-11.5h4.31l0.07-0.35c0.94-5.08,3.13-8.97,6.56-11.68c3.43-2.71,7.93-4.06,13.48-4.06
	c1.13,0,2,0.03,2.61,0.07l-2.05,11.78C268.63,228.01,268.14,227.99,267.53,227.99"/>
<path class="st2" d="M303.62,235.97c3.03,2.78,4.55,6.56,4.55,11.36c0,1.6-0.12,3.01-0.35,4.23c-0.28,1.51-0.56,2.59-0.85,3.24
	h-26.18c-0.05,0.28-0.07,0.71-0.07,1.27c0,1.79,0.43,3.1,1.31,3.95c0.87,0.85,2.03,1.27,3.49,1.27c2.3,0,4.14-1.04,5.51-3.1h14.68
	c-1.08,2.73-2.69,5.16-4.83,7.3c-2.14,2.14-4.66,3.82-7.55,5.04c-2.89,1.22-5.96,1.84-9.21,1.84c-5.18,0-9.29-1.41-12.35-4.23
	c-3.06-2.82-4.59-6.7-4.59-11.64c0-1.41,0.14-2.89,0.42-4.45c0.75-4.14,2.24-7.73,4.48-10.76c2.23-3.04,5.01-5.37,8.33-7.02
	c3.32-1.65,6.95-2.47,10.9-2.47C296.48,231.8,300.59,233.19,303.62,235.97 M294.34,247.33c0-1.51-0.47-2.65-1.41-3.42
	c-0.94-0.78-2.16-1.16-3.67-1.16c-1.74,0-3.25,0.49-4.51,1.48c-1.27,0.99-2.21,2.45-2.82,4.38h12.28
	C294.3,247.94,294.34,247.52,294.34,247.33"/>
<path class="st0" d="M372.39,219.66v10.59h-6.07v41.63h-12.28v-7.41c-1.13,1.27-2.61,2.25-4.45,2.93c-1.83,0.68-3.88,1.02-6.14,1.02
	c-3.25,0-6.19-0.74-8.82-2.22c-2.63-1.48-4.69-3.55-6.17-6.21c-1.48-2.66-2.22-5.66-2.22-9c0-3.2,0.74-6.07,2.22-8.61
	c1.48-2.54,3.53-4.53,6.14-5.96c2.61-1.44,5.56-2.15,8.86-2.15c4.19,0,7.71,1.13,10.58,3.39v-7.41h-32.11v-10.59H372.39z
	 M339.89,257.13c1.72,1.55,3.82,2.33,6.32,2.33c2.02,0,3.74-0.52,5.15-1.55l-13.62-9.74c-0.28,0.85-0.42,1.79-0.42,2.82
	C337.32,253.54,338.17,255.58,339.89,257.13 M340.91,244.01l13.41,9.67c0.28-0.85,0.42-1.74,0.42-2.68c0-2.45-0.79-4.49-2.36-6.14
	c-1.58-1.65-3.66-2.47-6.24-2.47C344.16,242.39,342.42,242.93,340.91,244.01"/>
<path class="st0" d="M431.17,230.25h-6.14v41.63h-12.77v-24.27h-7.69c0.99,1.98,1.48,4.21,1.48,6.7c0,2.96-0.68,5.48-2.05,7.55
	c-1.37,2.07-3.2,3.62-5.51,4.66c-2.3,1.03-4.84,1.55-7.62,1.55c-2.87,0-5.55-0.61-8.05-1.84c-2.49-1.22-4.49-3.01-6-5.36
	c-1.51-2.35-2.26-5.13-2.26-8.33c0-3.39,0.79-6.25,2.37-8.57c1.57-2.33,3.68-4.07,6.32-5.22c2.63-1.15,5.55-1.73,8.75-1.73h20.25
	v-6.77h-41.84v-10.59h60.76V230.25z M394.65,256.01c0.92-0.89,1.38-2.07,1.38-3.53c0-1.41-0.46-2.57-1.38-3.49
	c-0.92-0.92-2.11-1.38-3.57-1.38c-1.51,0-2.73,0.46-3.67,1.38c-0.94,0.92-1.41,2.11-1.41,3.56c0,1.41,0.47,2.56,1.41,3.46
	c0.94,0.89,2.16,1.34,3.67,1.34C392.54,257.35,393.73,256.9,394.65,256.01"/>
<path class="st0" d="M454.24,219.66v10.59h-6.14v41.63h-12.7v-41.63h-6.21v-10.59h6.56v-2.54c0-2.21-0.37-4.1-1.09-5.68
	c-0.73-1.58-2.18-2.36-4.34-2.36c-3.81,0-5.72,2.68-5.72,8.04v5.29h-12.35v-4.73c0-6.02,1.43-10.75,4.3-14.18
	c2.87-3.43,7.46-5.15,13.76-5.15c11.85,0,17.78,6.45,17.78,19.34v1.97H454.24z"/>
</svg>
